<svg id="Capa_1" data-name="Capa 1" xmlns="http://www.w3.org/2000/svg" viewBox="0 0 503.68 409.05"><defs><style>.cls-1{fill:#a90303;}.cls-2{fill:#6a6363;}.cls-3{fill:#cd0101;}.cls-4{fill:#f4f4f4;}.cls-5{fill:#cdccca;}.cls-6{fill:#fc8180;}</style></defs><title>favicon</title><path class="cls-1" d="M168.57,490a81.5,81.5,0,0,1,4.07-29.35c4-12.34,6.49-25,8.72-37.9,4.18-24.22,11.93-47.14,20.84-69.57.57-1.43,1.64-2.71,1.22-5A115.73,115.73,0,0,1,172.2,359c-4,.82-8,2-12.06,2.26-8.71.64-15.42,5.39-21.33,12.24-5.55,6.42-10,13.86-14.94,20.84-1.48-.06-2.29-1.31-3.16-2.38-3.17-3.91-6.88-6.28-11.74-5.76-1.42.15-3.28.4-4-1.27-2.57-6.24-7.38-9.89-11.9-13.91,4.77-12.3,12.37-22,21.43-30.37a79.37,79.37,0,0,1,7.74-6.53c30.9-22,50.37-54.83,65.67-91.31a131.54,131.54,0,0,1,40.48-53.27c18.19-14.41,38.38-23.73,59.75-29.9,10.55-3,20.55-.06,30.25,4.54,17.47,8.29,32.39,21.1,46.55,35.06C404.15,237.9,437.25,282.89,469,329.21,478.21,342.58,487,356.3,495.79,370c5,7.84,8.88,16.39,10.28,26.15-2.33,0-4.73.82-6.91-.83,1.51-3.62.12-6.74-1.34-9.81-5.77-12.17-13.06-23.09-20.8-33.71-5.36-7.36-9.67-15.73-15.15-22.95-8.53-11.24-16.37-23.1-24.8-34.42-8.64-11.6-16.76-23.76-25.86-34.88-15-18.36-30.48-36.23-47.09-52.82-14.74-14.71-30.22-28-48.23-37-7.27-3.61-15.11-6.18-23.3-4.5-15.18,3.11-29.32,9.7-43.18,17.18-8.13,4.4-14.72,11.34-22,17.1-10.46,8.24-18.45,18.87-25.95,30.2-8.61,13-12.71,28.83-20.42,42.48-3.85,6.82-8,13.38-12,20-4.49,7.43-10.06,14.05-15.19,21-3.66,4.95-7.52,10.09-8.49,17.11-.81,5.89,0,7.68,5.24,8.11,7.14.59,13.31-2.58,18.72-7.38,6.81-6,12.12-13.74,17-21.83,10.87-18,17-38.85,26.26-57.79A54.32,54.32,0,0,1,222,238c.58-.61,1.32-1.66,2.21-.68a2.54,2.54,0,0,1,.07,2.8c-3.93,8.44-7.73,17-11.85,25.27-6.53,13.13-12.3,26.62-15.81,41.22-2,8.18-.25,13.31,4.92,16.2,6.14,3.43,11.89,1.39,16.51-4.82,3.06-4.13,4.36-8.84,5.67-13.76,1.7-6.43,4.32-12.26,9.11-16.52,1-.87,2-1.51,3.19-.81s.8,2,.9,3.1c.78,9.31-2.59,17.37-5.78,25.53-2.4,6.15-6.78,11-8.55,17.59-.38,1.4-1.18,3,.33,4,1.33.89,2.38-.24,3.52-1.11,6.1-4.67,9.51-11.91,13.47-18.54,4.45-7.44,8.38-15.28,12.41-23,4.19-8.06,8.48-16.08,12.29-24.39,4.4-9.59,8.32-19.47,12.43-29.23.42-1,.54-2.61,2-1.87s.29,2,.33,3c.18,5.3-1.94,10-3,14.92-1.48,6.7-2.54,13.61-4.77,20-3.7,10.6-5.31,22-9.62,32.27-2.76,6.59-3.91,13.8-6.83,20.31-2.81,6.26-5.07,12.91-7.25,19.4a142.42,142.42,0,0,1-12.55,26.69c-6.3,10.75-12,21.39-13,34.5-.6,8.12-.47,16.22,2.92,23.75.67,1.48,1.11,2.77,3.26,1.85,5.59-2.4,10.24-6.66,15.52-9.65a13.6,13.6,0,0,0,3.53-3.6c3.78-4.69,3.29-11.58,6.83-16.38a59.94,59.94,0,0,0,3.7-6.64c5.5-10,9.5-20.72,13-31.76,4.86-15.33,10.39-30.38,14.5-46,.34-1.32-.28-4.07,1.93-3.72,1.87.3,1.91,2.63,2,4.47a9.19,9.19,0,0,1-.14,3c-2.84,8.72-2.64,18-3.13,27-.91,16.63-3.82,32.78-6.76,49-.35,1.95-1.23,4.17.26,5.6s2.5-1,3.82-1.5c1-.34,1.93-.69,2.91-1,4-1.28,8.21-2.17,12.09-3.91,8.13-3.64,16.61-5.77,25.06-8,12-3.11,24.27-4.91,36.5-6.58,6-.82,12.17-.14,18.26-.14-9.37,4-19.21,4.5-28.58,7.77a5.5,5.5,0,0,0,3.81.8c11.22-1.57,22.44-3.24,33.66-4.77,1.44-.2,3.36-1,4,1.71-8.23,1-16.46,2.12-24.7,3.09a356.65,356.65,0,0,0-63.75,13.66,325.2,325.2,0,0,0-74.58,33.35A288.85,288.85,0,0,0,181.51,477C177.05,481.14,173.84,486.89,168.57,490Z" transform="translate(-26.77 -158.44)"/><path class="cls-2" d="M499.16,395.3c2.18,1.65,4.58.79,6.91.83A14.89,14.89,0,0,0,508,397.2c11.82,4.39,16.34,12.56,14.46,26.65a102.42,102.42,0,0,0-.68,18.93,26.52,26.52,0,0,0,4,13.49,28.94,28.94,0,0,1,4.39,11.33c1.15,7.23-1.83,13-8,14.91-10.38,3.27-21.11,3.25-31.73,3.84-42.6,2.36-85.17,5.07-127.29,13.23-42.48,8.24-83.84,20.64-121.76,45a175.92,175.92,0,0,0-21.6,16.15A27.48,27.48,0,0,1,208,566.88c-8,2-13.59-.92-17.26-9.38-5.44-12.57-11.24-24.66-20.58-34.39-7-7.32-7.75-18.42-3.44-28.11.72-1.62,1.27-3.34,1.89-5,5.27-3.1,8.48-8.85,12.94-13a288.85,288.85,0,0,1,46.69-35.51,325.2,325.2,0,0,1,74.58-33.35,356.65,356.65,0,0,1,63.75-13.66c8.24-1,16.47-2.06,24.7-3.09l7-.2c10-.2,20-.56,30-.56,8.7,0,17.39.38,26.09.59l7,.18a143.64,143.64,0,0,0,25.41,2.24l-.05,0a2.23,2.23,0,0,0,2.61.77C492.5,396,495.84,395.57,499.16,395.3Zm-30.71,85.9c7.4-.29,14.82-.34,22.2-.91,9.26-.72,18.57-1,27.74-2.89,5.62-1.17,7.28-4.11,6.08-10.54a17.23,17.23,0,0,0-2.59-6.23,36.45,36.45,0,0,1-4.56-10.09c-1.57-9.71-.93-19.43-.14-29.16,2.35-10.82-5.25-17.7-12.66-18.72-18.4-2.55-36.83-4.57-55.36-5.52-45-2.3-89.5,1.62-133.35,13.6-18,4.92-35.8,10.69-52.7,19.53a33.32,33.32,0,0,0-4.16,1.4,316.93,316.93,0,0,0-49.63,29.46,192.85,192.85,0,0,0-34.27,31.66c-7,8.37-7.55,19.09-.32,26.61,8.75,9.12,14.54,20.23,19.59,32.13,4.4,10.35,8.19,11.89,17.49,7.31a23.77,23.77,0,0,0,4.85-3.33c17.54-14.94,36.74-26.23,57.16-35.18,50.05-21.94,102.35-30.89,155.39-35.84C442.28,483.27,455.37,482.29,468.45,481.2Z" transform="translate(-26.77 -158.44)"/><path class="cls-2" d="M93.1,371.05c4.52,4,9.33,7.67,11.9,13.91.69,1.67,2.55,1.42,4,1.27,4.86-.52,8.57,1.85,11.74,5.76.87,1.07,1.68,2.32,3.16,2.38,0,5.6,2.57,10.95,1.27,16.71-.09.43.48,1.13.83,1.61,8.58,11.55,9.74,21.13,3.74,34.05a17.45,17.45,0,0,0-1.61,8.52c.63,14.59-3.88,21.31-16.48,24.53-1.8.46-2.23,1.82-2.94,3.24-5.32,10.56-14.44,12.82-22.86,5.4-2.18-1.92-3.32-2.39-5.65,0-6.42,6.61-14.48,4.92-19.73-4.11-1.77-3-3.46-4.05-6.65-3.82C45.14,481.12,39,475.26,37,465.2c-.34-1.78-.51-3.42-1.9-4.82a27.82,27.82,0,0,1-5.67-31.89,11.62,11.62,0,0,0,.94-7.94c-2.92-14,3.42-26.25,15.42-29.92,1.42-.43,1.78-1.35,2.36-2.46,5.09-9.87,14.75-13.92,24.08-9.81,2.11.92,3.25.79,4.77-1.18C81.29,371.65,87.26,371.44,93.1,371.05Zm29,81.43c-.52-2.68.5-4.87,1.69-7,4.81-7.22,5.61-17.06,2-24.15a6.9,6.9,0,0,0-4.54-4.34c-2.61-.75-2.81-2.16-1.9-4.61a15.35,15.35,0,0,0,.47-3.44c1.5-12.79-6.08-19.74-16.61-15.23-.53.23-1.07.43-1.85.74-.15-8.29-2.89-14.83-10.2-16.58-8.26-2-12,4.95-15.12,12.27-4-6.68-8.72-8.58-15.28-6.45-5.91,1.92-8.61,6.44-8.82,14.72-7.07-3-11.45-1-14.89,6.84a23.6,23.6,0,0,0-.67,17,7.11,7.11,0,0,1-1.05,7.08c-5.25,7.78-3.51,22.51,3.34,26.14,3.09,1.63,3.36,3.49,3.51,6.59.42,8.51,5.55,14.34,12.28,12.15,5.85-1.9,7.49.3,9.9,5.62,4,8.8,10.33,8.62,15.25.45,1.1-1.82,1.43-4.3,3.34-5.66L84.09,477c2.77,5.79,6.72,10,12.8,9.37,5.75-.62,7.51-6,8.6-11.62.28-1.45.56-2.59,2.27-1.82C117.76,477.46,125.46,464.47,122.1,452.48Z" transform="translate(-26.77 -158.44)"/><path class="cls-3" d="M461.35,391.36l-7-.18c-3.52-3.36-8-2.16-11.87-2.41a283.38,283.38,0,0,0-33.23,0c-3.6.19-7.78-.84-11,2.42l-7,.2c-.59-2.71-2.51-1.91-4-1.71-11.22,1.53-22.44,3.2-33.66,4.77a5.5,5.5,0,0,1-3.81-.8c9.37-3.27,19.21-3.81,28.58-7.77-6.09,0-12.26-.68-18.26.14-12.23,1.67-24.48,3.47-36.5,6.58-8.45,2.19-16.93,4.32-25.06,8-3.88,1.74-8.05,2.63-12.09,3.91-1,.31-2,.66-2.91,1-1.32.46-2.39,2.86-3.82,1.5s-.61-3.65-.26-5.6c2.94-16.21,5.85-32.36,6.76-49,.49-9,.29-18.27,3.13-27a9.19,9.19,0,0,0,.14-3c-.06-1.84-.1-4.17-2-4.47-2.21-.35-1.59,2.4-1.93,3.72-4.11,15.64-9.64,30.69-14.5,46-3.51,11-7.51,21.79-13,31.76a59.94,59.94,0,0,1-3.7,6.64c-3.54,4.8-3,11.69-6.83,16.38a13.6,13.6,0,0,1-3.53,3.6c-5.28,3-9.93,7.25-15.52,9.65-2.15.92-2.59-.37-3.26-1.85-3.39-7.53-3.52-15.63-2.92-23.75,1-13.11,6.66-23.75,13-34.5a142.42,142.42,0,0,0,12.55-26.69c2.18-6.49,4.44-13.14,7.25-19.4,2.92-6.51,4.07-13.72,6.83-20.31,4.31-10.28,5.92-21.67,9.62-32.27,2.23-6.37,3.29-13.28,4.77-20,1.09-5,3.21-9.62,3-14.92,0-1.06,1-2.37-.33-3s-1.56.87-2,1.87c-4.11,9.76-8,19.64-12.43,29.23-3.81,8.31-8.1,16.33-12.29,24.39-4,7.76-8,15.6-12.41,23-4,6.63-7.37,13.87-13.47,18.54-1.14.87-2.19,2-3.52,1.11-1.51-1-.71-2.61-.33-4,1.77-6.54,6.15-11.44,8.55-17.59,3.19-8.16,6.56-16.22,5.78-25.53-.1-1.11.25-2.44-.9-3.1s-2.21-.06-3.19.81c-4.79,4.26-7.41,10.09-9.11,16.52-1.31,4.92-2.61,9.63-5.67,13.76-4.62,6.21-10.37,8.25-16.51,4.82-5.17-2.89-6.89-8-4.92-16.2,3.51-14.6,9.28-28.09,15.81-41.22,4.12-8.31,7.92-16.83,11.85-25.27a2.54,2.54,0,0,0-.07-2.8c-.89-1-1.63.07-2.21.68a54.32,54.32,0,0,0-9.52,13.46c-9.29,18.94-15.39,39.77-26.26,57.79-4.87,8.09-10.18,15.79-17,21.83-5.41,4.8-11.58,8-18.72,7.38-5.27-.43-6.05-2.22-5.24-8.11,1-7,4.83-12.16,8.49-17.11,5.13-6.94,10.7-13.56,15.19-21,4-6.66,8.2-13.22,12-20,7.71-13.65,11.81-29.48,20.42-42.48,7.5-11.33,15.49-22,25.95-30.2,7.31-5.76,13.9-12.7,22-17.1,13.86-7.48,28-14.07,43.18-17.18,8.19-1.68,16,.89,23.3,4.5,18,8.92,33.49,22.24,48.23,37,16.61,16.59,32.07,34.46,47.09,52.82,9.1,11.12,17.22,23.28,25.86,34.88,8.43,11.32,16.27,23.18,24.8,34.42,5.48,7.22,9.79,15.59,15.15,22.95,7.74,10.62,15,21.54,20.8,33.71,1.46,3.07,2.85,6.19,1.34,9.81-3.32.27-6.66.74-9.84-1-.68-1.07-1.66-.85-2.61-.77l.05,0c-7.88-3.67-16.36-2.39-24.52-3.73C462,389.83,461.65,390.84,461.35,391.36ZM372,323.46v0c-.2,4.23,1.53,8.09,1.83,12.23.78,10.58,6.47,15.57,15.05,17.76,14.83,3.79,29.81,3.64,44.84,2.87a38.49,38.49,0,0,0,5.18-.91c1-.21,2.06-.58,2.33-1.9s-.68-1.67-1.3-2.36a66.86,66.86,0,0,1-6.15-7.07,269.93,269.93,0,0,1-32.5-67.51,121.66,121.66,0,0,0-11.45-25.15c-11-18.49-25.09-33.67-40.27-47.56-14.6-13.34-30.33-24.32-49.22-27.76-6.06-1.11-12.19-2.37-19.71-.55,12.2,5.1,23.74,8.5,32.35,18.38,21.61,30.14,35.65,64.58,43.68,102.18a47.81,47.81,0,0,0,14.06,25.55ZM262.32,215.09c-.27-2.78,1.06-6.36-2.05-8-2.81-1.47-5.34.24-7.72,2-1.73,1.24-3.51,2.38-5.24,3.6-1.25.88-2.85,1.93-2.87,3.53,0,2.06,2.16,1.79,3.35,2.45,4.35,2.41,5.48,6.84,2.41,11.13-1.84,2.56-4.08,4.75-6.12,7.13-5.42,6.34-9.09,14.08-13,21.58-.74,1.42-2.29,4.06-.37,5.31,1.51,1,2.47-1.67,3.48-3,.19-.25.25-.62.44-.86,6.27-7.71,12.35-15.62,18.84-23.12C258.51,231,263.47,224.53,262.32,215.09Z" transform="translate(-26.77 -158.44)"/><path class="cls-4" d="M517.32,450.54a36.45,36.45,0,0,0,4.56,10.09,17.23,17.23,0,0,1,2.59,6.23c1.2,6.43-.46,9.37-6.08,10.54-9.17,1.92-18.48,2.17-27.74,2.89-7.38.57-14.8.62-22.2.91-1.56-2.85-4.23-2.51-6.54-2.67a264.47,264.47,0,0,0-31.36-.4c-19.1,1-37.94,4-56.65,7.69-27,5.28-53.87,12-80.78,18.14a30.59,30.59,0,0,1-9.58.36c-2.78-.25-4.62-2.41-4.44-5.69s-1.77-7.62,3.1-8.92c7.5-2,14.93-4.32,22.46-6.16,14.76-3.61,29.52-7.21,44.36-10.37,9.26-2,18.64-3.22,28-4.68,7.87-1.24,15.76-2.32,23.64-3.47a5.28,5.28,0,0,0-3-.56q-13.92.84-27.74,3c-12.08,1.83-24.21,3.32-36.24,5.51-16.34,3-32.64,6.37-48.75,10.7-3.49.93-4.66-.39-4.81-3.73a30.52,30.52,0,0,0-3.71-13.66c-2.67-4.74-.41-6.25,2.83-7.64,12.13-5.18,24.41-9.79,36.79-14.11,13.06-4.57,26.22-8.72,39.55-12.16,16.42-4.24,32.94-7.95,49.6-10.83,9.05-1.57,18.12-3,27.18-4.56-8.3-.41-16.5.68-24.73,1.39a448.72,448.72,0,0,0-52.71,7.35c-27.74,5.74-55.25,12.76-81.4,25.18-4.44,2.11-7.83,2-11.77-.7-5-3.42-5.92-8.25-2.48-13.7,1.3-2.06,4.07-3,3.9-6.2,16.9-8.84,34.7-14.61,52.7-19.53,43.85-12,88.35-15.9,133.35-13.6,18.53.95,37,3,55.36,5.52,7.41,1,15,7.9,12.66,18.72-2.93,2-6,3.8-8.77,6.06-4.64,3.79-5.36,8.47-2,13.65C509.25,445.33,512.68,448.92,517.32,450.54Z" transform="translate(-26.77 -158.44)"/><path class="cls-5" d="M263.11,430.27c.17,3.24-2.6,4.14-3.9,6.2-3.44,5.45-2.55,10.28,2.48,13.7,3.94,2.68,7.33,2.81,11.77.7,26.15-12.42,53.66-19.44,81.4-25.18a448.72,448.72,0,0,1,52.71-7.35c8.23-.71,16.43-1.8,24.73-1.39-9.06,1.52-18.13,3-27.18,4.56-16.66,2.88-33.18,6.59-49.6,10.83C342.19,435.78,329,439.93,316,444.5c-12.38,4.32-24.66,8.93-36.79,14.11-3.24,1.39-5.5,2.9-2.83,7.64a30.52,30.52,0,0,1,3.71,13.66c.15,3.34,1.32,4.66,4.81,3.73,16.11-4.33,32.41-7.73,48.75-10.7,12-2.19,24.16-3.68,36.24-5.51q13.81-2.1,27.74-3a5.28,5.28,0,0,1,3,.56c-7.88,1.15-15.77,2.23-23.64,3.47-9.34,1.46-18.72,2.7-28,4.68-14.84,3.16-29.6,6.76-44.36,10.37-7.53,1.84-15,4.16-22.46,6.16-4.87,1.3-2.92,5.68-3.1,8.92s1.66,5.44,4.44,5.69a30.59,30.59,0,0,0,9.58-.36c26.91-6.17,53.74-12.86,80.78-18.14,18.71-3.65,37.55-6.72,56.65-7.69a264.47,264.47,0,0,1,31.36.4c2.31.16,5-.18,6.54,2.67-13.08,1.09-26.17,2.07-39.24,3.29-53,4.95-105.34,13.9-155.39,35.84-20.42,8.95-39.62,20.24-57.16,35.18a23.77,23.77,0,0,1-4.85,3.33c-9.3,4.58-13.09,3-17.49-7.31-5-11.9-10.84-23-19.59-32.13-7.23-7.52-6.72-18.24.32-26.61a192.85,192.85,0,0,1,34.27-31.66A316.93,316.93,0,0,1,259,431.67,33.32,33.32,0,0,1,263.11,430.27Z" transform="translate(-26.77 -158.44)"/><path class="cls-5" d="M517.32,450.54c-4.64-1.62-8.07-5.21-10.86-9.45-3.41-5.18-2.69-9.86,2-13.65,2.77-2.26,5.84-4.06,8.77-6.06C516.39,431.11,515.75,440.83,517.32,450.54Z" transform="translate(-26.77 -158.44)"/><path class="cls-1" d="M398.24,391.15c3.23-3.26,7.41-2.23,11-2.42a283.38,283.38,0,0,1,33.23,0c3.87.25,8.35-.95,11.87,2.41-8.7-.21-17.39-.6-26.09-.59C418.25,390.59,408.25,391,398.24,391.15Z" transform="translate(-26.77 -158.44)"/><path class="cls-1" d="M461.35,391.36c.3-.52.66-1.53.89-1.49,8.16,1.34,16.64.06,24.52,3.73A143.64,143.64,0,0,1,461.35,391.36Z" transform="translate(-26.77 -158.44)"/><path class="cls-1" d="M486.71,393.57c1-.08,1.93-.3,2.61.77A2.23,2.23,0,0,1,486.71,393.57Z" transform="translate(-26.77 -158.44)"/><path class="cls-4" d="M123.79,445.47c-1.19,2.14-2.21,4.33-1.69,7-2.28,2.73-3.66,7.43-8.18,5.65-4-1.57-6.87-.37-9.73,3s-6.44,4.56-10.63,1.74c-5.23-3.53-10.87-3.46-16.35-.5-7.63,4.12-11.17,3.06-15.11-8.1-1.59-4.49-3.78-7.14-8.39-6.93s-5.43-1.84-3.18-6.47c1.46-3,3-6,4.39-9.07,1-2.3.28-3.47-2-3.37-2.09.08-4.09-.06-5.42-2.36-3.92-6.83-.22-19.87,6.47-22.43-.93-1.65-2.32-3.07-2.08-5.28.21-8.28,2.91-12.8,8.82-14.72,6.56-2.13,11.25-.23,15.28,6.45,3.12-7.32,6.86-14.24,15.12-12.27,7.31,1.75,10.05,8.29,10.2,16.58.78-.31,1.32-.51,1.85-.74,10.53-4.51,18.11,2.44,16.61,15.23a15.35,15.35,0,0,1-.47,3.44c-.91,2.45-.71,3.86,1.9,4.61a6.9,6.9,0,0,1,4.54,4.34C123.31,429.18,122,437.15,123.79,445.47Z" transform="translate(-26.77 -158.44)"/><path class="cls-5" d="M51.91,398.4c-.24,2.21,1.15,3.63,2.08,5.28-6.69,2.56-10.39,15.6-6.47,22.43,1.33,2.3,3.33,2.44,5.42,2.36,2.26-.1,3,1.07,2,3.37-1.39,3.07-2.93,6.05-4.39,9.07-2.25,4.63-1.39,6.68,3.18,6.47s6.8,2.44,8.39,6.93c3.94,11.16,7.48,12.22,15.11,8.1,5.48-3,11.12-3,16.35.5,4.19,2.82,7.69,1.75,10.63-1.74s5.75-4.61,9.73-3c4.52,1.78,5.9-2.92,8.18-5.65,3.36,12-4.34,25-14.34,20.44-1.71-.77-2,.37-2.27,1.82-1.09,5.59-2.85,11-8.6,11.62-6.08.66-10-3.58-12.8-9.37l-1.17-2.42c-1.91,1.36-2.24,3.84-3.34,5.66-4.92,8.17-11.25,8.35-15.25-.45-2.41-5.32-4-7.52-9.9-5.62-6.73,2.19-11.86-3.64-12.28-12.15-.15-3.1-.42-5-3.51-6.59-6.85-3.63-8.59-18.36-3.34-26.14a7.11,7.11,0,0,0,1.05-7.08,23.6,23.6,0,0,1,.67-17C40.46,397.39,44.84,395.35,51.91,398.4Z" transform="translate(-26.77 -158.44)"/><path class="cls-5" d="M123.79,445.47c-1.83-8.32-.48-16.29,2-24.15C129.4,428.41,128.6,438.25,123.79,445.47Z" transform="translate(-26.77 -158.44)"/><path class="cls-6" d="M313,193.9c-8.61-9.88-20.15-13.28-32.35-18.38,7.52-1.82,13.65-.56,19.71.55,18.89,3.44,34.62,14.42,49.22,27.76,15.18,13.89,29.24,29.07,40.27,47.56a121.66,121.66,0,0,1,11.45,25.15,269.93,269.93,0,0,0,32.5,67.51,66.86,66.86,0,0,0,6.15,7.07c.62.69,1.55,1.17,1.3,2.36s-1.29,1.69-2.33,1.9a38.49,38.49,0,0,1-5.18.91c-15,.77-30,.92-44.84-2.87-8.58-2.19-14.27-7.18-15.05-17.76-.3-4.14-2-8-1.83-12.23,4.34,2.5,8,6.46,13.11,7.38s8.34-1.51,8.73-7.64a53.37,53.37,0,0,0-2.56-18.55c-7.71-26.21-19.07-50.08-34.82-71.22-11-14.77-23.35-27.75-37.86-37.92C317,194.36,315.48,191.61,313,193.9Z" transform="translate(-26.77 -158.44)"/><path class="cls-5" d="M313,193.9c2.47-2.29,4,.46,5.62,1.58,14.51,10.17,26.85,23.15,37.86,37.92,15.75,21.14,27.11,45,34.82,71.22a53.37,53.37,0,0,1,2.56,18.55c-.39,6.13-3.49,8.58-8.73,7.64s-8.77-4.88-13.11-7.38v0c.1-1.09-.29-1.73-1.27-1.83a47.81,47.81,0,0,1-14.06-25.55C348.66,258.48,334.62,224,313,193.9Z" transform="translate(-26.77 -158.44)"/><path class="cls-1" d="M262.32,215.09c1.15,9.44-3.81,15.9-8.88,21.75-6.49,7.5-12.57,15.41-18.84,23.12-.19.24-.25.61-.44.86-1,1.3-2,4-3.48,3-1.92-1.25-.37-3.89.37-5.31,3.94-7.5,7.61-15.24,13-21.58,2-2.38,4.28-4.57,6.12-7.13,3.07-4.29,1.94-8.72-2.41-11.13-1.19-.66-3.39-.39-3.35-2.45,0-1.6,1.62-2.65,2.87-3.53,1.73-1.22,3.51-2.36,5.24-3.6,2.38-1.72,4.91-3.43,7.72-2C263.38,208.73,262.05,212.31,262.32,215.09Z" transform="translate(-26.77 -158.44)"/><path class="cls-6" d="M370.75,321.63c1,.1,1.37.74,1.27,1.83Z" transform="translate(-26.77 -158.44)"/></svg>